<?xml version="1.0" standalone="no"?>
<!DOCTYPE svg PUBLIC "-//W3C//DTD SVG 20010904//EN"
 "http://www.w3.org/TR/2001/REC-SVG-20010904/DTD/svg10.dtd">
<svg version="1.0" xmlns="http://www.w3.org/2000/svg"
 width="300.000000pt" height="258.000000pt" viewBox="0 0 300.000000 258.000000"
 preserveAspectRatio="xMidYMid meet">
<metadata>
Created by potrace 1.10, written by Peter Selinger 2001-2011
</metadata>
<g transform="translate(0.000000,258.000000) scale(0.050000,-0.050000)"
fill="#008080" stroke="none">
<path d="M2480 4928 c-27 -5 -153 -22 -280 -40 -440 -61 -451 -80 -328 -569
250 -993 830 -1380 1431 -956 70 49 68 50 96 -48 31 -112 86 -185 128 -169 75
29 17 401 -72 463 -67 47 -109 39 -308 -62 -469 -238 -726 -37 -988 773 -52
160 -92 292 -89 295 2 3 75 18 162 33 605 105 1056 14 1170 -236 51 -112 53
-302 3 -282 -452 190 -796 94 -359 -99 63 -28 179 -82 257 -121 243 -120 348
-77 398 164 123 592 -427 976 -1221 854z"/>
<path d="M4451 4488 c-477 -107 -720 -477 -598 -912 69 -248 153 -263 527 -94
331 150 372 182 300 242 -67 55 -217 41 -423 -39 l-153 -59 -12 75 c-60 378
331 616 938 570 361 -28 513 -55 499 -89 -7 -18 -44 -122 -82 -232 -301 -862
-601 -1082 -1049 -767 -243 171 -414 89 -527 -251 -82 -245 5 -268 156 -42
127 190 155 203 244 108 450 -473 1065 -161 1379 702 212 585 194 697 -120
750 -403 68 -874 84 -1079 38z"/>
<path d="M533 4135 c-229 -323 -333 -533 -333 -670 1 -177 158 -380 330 -423
69 -17 87 -31 96 -77 79 -390 658 -529 964 -231 290 282 213 636 -263 1196
-132 157 -152 159 -267 29 l-90 -102 -138 201 c-165 242 -179 246 -299 77z
m185 -131 c26 -41 74 -117 107 -169 l58 -95 -69 -95 c-101 -138 -188 -312
-204 -404 -15 -90 -26 -95 -110 -51 -219 113 -212 312 24 695 136 222 130 218
194 119z m559 -216 c339 -429 411 -616 315 -818 -147 -311 -536 -369 -756
-112 -188 220 -146 405 196 860 160 214 137 207 245 70z"/>
<path d="M2367 2409 c-130 -87 -145 -138 -149 -517 -4 -446 45 -531 317 -552
l133 -10 133 -471 c147 -519 161 -550 282 -618 l84 -47 571 12 c709 16 802 41
802 217 0 65 -11 68 -92 29 -47 -23 -112 -25 -348 -11 -159 9 -422 17 -583 18
-208 1 -298 8 -313 26 -11 14 -88 259 -171 544 -171 592 -158 571 -373 571
-203 0 -200 -4 -200 312 0 347 -59 318 606 298 299 -8 868 -21 1264 -28 l720
-12 6 -265 c4 -202 -1 -268 -20 -274 -68 -22 -882 -48 -929 -30 -29 11 -170
22 -314 24 l-263 5 -6 -57 c-19 -161 206 -228 806 -238 219 -4 259 -10 253
-35 -4 -16 -47 -164 -95 -329 -211 -716 -13 -561 284 222 l77 203 102 -10
c134 -14 232 20 308 106 l61 69 0 332 c0 377 -16 436 -137 511 l-73 46 -1330
6 -1330 7 -83 -54z"/>
</g>
</svg>
